<svg width="45" height="45" viewBox="0 0 45 45" fill="none" xmlns="http://www.w3.org/2000/svg">
<path fill-rule="evenodd" clip-rule="evenodd" d="M10.3635 29.1825C10.6366 29.5363 10.7583 29.9839 10.7018 30.4273C10.6453 30.8706 10.4152 31.2734 10.062 31.5473C9.24112 32.1791 8.61111 33.0257 8.24179 33.9935C7.87246 34.9613 7.77822 36.0125 7.96952 37.0305C8.98758 37.2218 10.0387 37.1276 11.0065 36.7583C11.9743 36.3889 12.821 35.7589 13.4528 34.938C13.5868 34.7585 13.7553 34.6074 13.9483 34.4937C14.1414 34.3799 14.3552 34.3058 14.5772 34.2755C14.7992 34.2453 15.0251 34.2596 15.2415 34.3175C15.458 34.3755 15.6607 34.476 15.8379 34.6131C16.0151 34.7503 16.1632 34.9214 16.2736 35.1164C16.3839 35.3114 16.4544 35.5264 16.4807 35.7489C16.5071 35.9714 16.4889 36.197 16.4272 36.4124C16.3655 36.6278 16.2615 36.8287 16.1213 37.0035C14.9682 38.4991 13.3735 39.5935 11.5633 40.1315C9.75308 40.6694 7.81945 40.6236 6.03677 40.0005C5.79696 39.9168 5.57914 39.7801 5.39954 39.6005C5.21995 39.4209 5.08321 39.2031 4.99952 38.9633C4.37608 37.1806 4.3301 35.2469 4.86809 33.4366C5.40608 31.6264 6.5007 30.0316 7.99652 28.8788C8.35041 28.6049 8.79857 28.4829 9.24245 28.5394C9.68633 28.596 10.0896 28.8265 10.3635 29.1803V29.1825Z" fill="#0011A8"/>
<path fill-rule="evenodd" clip-rule="evenodd" d="M12.942 27C14.4159 28.8855 16.1145 30.5841 18 32.058V41.0625C18 41.994 18.756 42.75 19.6875 42.75C21.437 42.7504 23.1625 42.3428 24.7268 41.5595C26.2912 40.7762 27.6513 39.6389 28.6991 38.2379C29.7469 36.8369 30.4535 35.2108 30.7628 33.4889C31.0721 31.7669 30.9755 29.9966 30.4808 28.3185C34.3588 25.5572 37.5032 21.8899 39.6404 17.6359C41.7775 13.382 42.8427 8.67014 42.7433 3.91051C42.7346 3.47462 42.5576 3.05898 42.2493 2.75069C41.941 2.4424 41.5254 2.2654 41.0895 2.25676C36.3295 2.15691 31.6172 3.22193 27.3628 5.35913C23.1084 7.49633 19.4408 10.6409 16.6793 14.5193C15.0013 14.0249 13.2312 13.9287 11.5096 14.2382C9.78795 14.5476 8.16219 15.2543 6.76147 16.3021C5.36074 17.3499 4.22364 18.7098 3.44049 20.2739C2.65734 21.8381 2.24972 23.5633 2.25 25.3125C2.25225 26.244 3.00825 27 3.93975 27H12.9443H12.942ZM29.25 20.25C30.4435 20.25 31.5881 19.7759 32.432 18.932C33.2759 18.0881 33.75 16.9435 33.75 15.75C33.75 14.5565 33.2759 13.4119 32.432 12.568C31.5881 11.7241 30.4435 11.25 29.25 11.25C28.0565 11.25 26.9119 11.7241 26.068 12.568C25.2241 13.4119 24.75 14.5565 24.75 15.75C24.75 16.9435 25.2241 18.0881 26.068 18.932C26.9119 19.7759 28.0565 20.25 29.25 20.25Z" fill="#0011A8"/>
</svg>
