<svg width="41" height="41" viewBox="0 0 41 41" fill="none" xmlns="http://www.w3.org/2000/svg">
<path fill-rule="evenodd" clip-rule="evenodd" d="M8.36352 27.1825C8.63665 27.5363 8.7583 27.9839 8.70177 28.4273C8.64525 28.8706 8.41517 29.2734 8.06202 29.5473C7.24112 30.1791 6.61111 31.0257 6.24179 31.9935C5.87246 32.9613 5.77822 34.0125 5.96952 35.0305C6.98758 35.2218 8.03871 35.1276 9.00651 34.7583C9.97431 34.3889 10.821 33.7589 11.4528 32.938C11.5868 32.7585 11.7553 32.6074 11.9483 32.4937C12.1414 32.3799 12.3552 32.3058 12.5772 32.2755C12.7992 32.2453 13.0251 32.2596 13.2415 32.3175C13.458 32.3755 13.6607 32.476 13.8379 32.6131C14.0151 32.7503 14.1632 32.9214 14.2736 33.1164C14.3839 33.3114 14.4544 33.5264 14.4807 33.7489C14.5071 33.9714 14.4889 34.197 14.4272 34.4124C14.3655 34.6278 14.2615 34.8287 14.1213 35.0035C12.9682 36.4991 11.3735 37.5935 9.56327 38.1315C7.75308 38.6694 5.81945 38.6236 4.03677 38.0005C3.79696 37.9168 3.57914 37.7801 3.39954 37.6005C3.21995 37.4209 3.08321 37.2031 2.99952 36.9633C2.37608 35.1806 2.3301 33.2469 2.86809 31.4366C3.40608 29.6264 4.5007 28.0316 5.99652 26.8788C6.35041 26.6049 6.79857 26.4829 7.24245 26.5394C7.68633 26.596 8.08958 26.8265 8.36352 27.1803V27.1825Z" fill="#0011A8"/>
<path fill-rule="evenodd" clip-rule="evenodd" d="M10.942 25C12.4159 26.8855 14.1145 28.5841 16 30.058V39.0625C16 39.994 16.756 40.75 17.6875 40.75C19.437 40.7504 21.1625 40.3428 22.7268 39.5595C24.2912 38.7762 25.6513 37.6389 26.6991 36.2379C27.7469 34.8369 28.4535 33.2108 28.7628 31.4889C29.0721 29.7669 28.9755 27.9966 28.4808 26.3185C32.3588 23.5572 35.5032 19.8899 37.6404 15.6359C39.7775 11.382 40.8427 6.67014 40.7433 1.91051C40.7346 1.47462 40.5576 1.05898 40.2493 0.750689C39.941 0.442403 39.5254 0.265397 39.0895 0.256763C34.3295 0.156907 29.6172 1.22193 25.3628 3.35913C21.1084 5.49633 17.4408 8.64094 14.6793 12.5193C13.0013 12.0249 11.2312 11.9287 9.50959 12.2382C7.78795 12.5476 6.16219 13.2543 4.76147 14.3021C3.36074 15.3499 2.22364 16.7098 1.44049 18.2739C0.65734 19.8381 0.249716 21.5633 0.25 23.3125C0.25225 24.244 1.00825 25 1.93975 25H10.9443H10.942ZM27.25 18.25C28.4435 18.25 29.5881 17.7759 30.432 16.932C31.2759 16.0881 31.75 14.9435 31.75 13.75C31.75 12.5565 31.2759 11.4119 30.432 10.568C29.5881 9.72412 28.4435 9.25001 27.25 9.25001C26.0565 9.25001 24.9119 9.72412 24.068 10.568C23.2241 11.4119 22.75 12.5565 22.75 13.75C22.75 14.9435 23.2241 16.0881 24.068 16.932C24.9119 17.7759 26.0565 18.25 27.25 18.25Z" fill="#0011A8"/>
</svg>
